<?xml version="1.0" standalone="no"?>
<!DOCTYPE svg PUBLIC "-//W3C//DTD SVG 20010904//EN"
 "http://www.w3.org/TR/2001/REC-SVG-20010904/DTD/svg10.dtd">
<svg version="1.0" xmlns="http://www.w3.org/2000/svg"
 width="512.000000pt" height="512.000000pt" viewBox="0 0 512.000000 512.000000"
 preserveAspectRatio="xMidYMid meet" fill="currentColor" stroke="currentColor" color='white'>
 

<g transform="translate(0.000000,512.000000) scale(0.100000,-0.100000)"
fill="currentColor" stroke="currentColor">
<path fill="currentColor" stroke="currentColor" d="M2380 5114 c-19 -2 -78 -9 -130 -14 -330 -36 -695 -160 -990 -336
-375 -224 -680 -529 -904 -904 -175 -292 -291 -632 -338 -990 -16 -123 -16
-497 0 -620 82 -623 356 -1150 820 -1581 256 -239 575 -425 922 -539 274 -91
491 -124 800 -124 228 0 329 9 530 50 689 141 1304 583 1674 1204 175 292 291
632 338 990 16 123 16 497 0 620 -47 358 -163 698 -338 990 -224 375 -529 680
-904 904 -289 173 -634 291 -980 336 -88 12 -438 21 -500 14z m100 -714 l0
-560 -42 0 c-87 0 -337 21 -488 40 -154 20 -359 55 -367 64 -15 15 132 337
217 476 103 168 251 335 373 419 85 58 225 116 290 120 16 1 17 -32 17 -559z
m280 533 c63 -21 163 -77 230 -128 115 -89 266 -269 348 -415 43 -77 67 -100
103 -100 43 0 83 42 76 80 -15 72 -188 320 -310 443 -102 103 -106 101 98 36
346 -110 658 -299 933 -563 l103 -99 -58 -24 c-133 -55 -538 -183 -580 -183
-6 0 -19 22 -28 49 -24 73 -49 101 -91 101 -68 0 -90 -53 -58 -137 9 -24 15
-46 12 -48 -28 -29 -656 -105 -859 -105 l-39 0 0 561 0 561 37 -7 c21 -4 58
-13 83 -22z m-794 -65 c-62 -51 -183 -195 -254 -303 -83 -125 -186 -328 -243
-473 -23 -62 -49 -112 -56 -112 -46 0 -598 182 -621 205 -8 7 36 52 160 164
262 238 566 410 908 515 63 19 122 35 130 36 8 0 -3 -14 -24 -32z m-1115 -872
c129 -49 301 -104 470 -151 l57 -16 -26 -92 c-14 -51 -35 -137 -46 -192 l-22
-100 -234 -6 c-129 -3 -250 -11 -268 -17 -80 -27 -158 -98 -194 -177 -22 -48
-23 -63 -26 -327 l-3 -278 -203 0 -202 0 3 63 c28 458 189 906 461 1280 37 49
62 76 72 73 8 -2 81 -29 161 -60z m3655 -18 c274 -382 424 -799 458 -1275 l4
-63 -203 0 -204 0 -3 278 c-3 264 -4 279 -26 327 -36 79 -114 150 -194 177
-18 6 -139 14 -268 17 l-234 6 -22 100 c-11 55 -32 142 -46 192 l-26 93 42 10
c169 44 482 148 596 199 25 11 50 20 56 20 6 1 37 -36 70 -81z m-2847 -208
c215 -41 577 -80 742 -80 l79 0 0 -125 0 -125 -520 0 c-286 0 -520 3 -520 8 0
4 18 82 41 175 33 129 46 167 58 167 9 0 63 -9 120 -20z m1944 -2 c2 -13 18
-77 35 -143 17 -66 33 -135 37 -152 l7 -33 -521 0 -521 0 0 125 0 125 83 0
c167 0 562 44 757 84 99 21 117 20 123 -6z m671 -488 c54 -12 87 -38 113 -90
l23 -44 0 -586 0 -586 -22 -44 c-27 -52 -60 -78 -114 -90 -52 -13 -3376 -13
-3428 0 -54 12 -87 38 -113 90 l-23 44 0 586 0 586 23 44 c25 50 59 78 108 90
48 11 3385 12 3433 0z m-3714 -1065 c0 -310 7 -341 92 -431 85 -91 113 -98
393 -104 l239 -5 22 -100 c11 -55 32 -142 46 -192 l26 -93 -42 -11 c-175 -45
-437 -131 -575 -188 -41 -17 -77 -31 -80 -31 -4 0 -36 42 -73 93 -270 378
-423 810 -451 1265 l-3 62 203 0 203 0 0 -265z m4404 203 c-29 -412 -143 -773
-353 -1118 -39 -64 -138 -207 -161 -233 -4 -5 -72 16 -151 46 -127 49 -399
137 -515 167 l-42 10 26 93 c14 50 35 137 46 192 l22 100 234 6 c129 3 250 11
268 17 80 27 158 98 194 177 22 48 23 63 26 328 l3 277 204 0 203 0 -4 -62z
m-2484 -863 l0 -125 -82 0 c-167 0 -520 -38 -739 -80 -130 -25 -136 -25 -142
3 -2 12 -18 76 -35 142 -17 66 -33 135 -37 153 l-7 32 521 0 521 0 0 -125z
m1200 118 c0 -5 -18 -83 -41 -175 -33 -130 -46 -168 -58 -168 -9 0 -63 9 -120
20 -219 42 -572 80 -738 80 l-83 0 0 125 0 125 520 0 c286 0 520 -3 520 -7z
m-1200 -953 l0 -561 -37 7 c-227 41 -473 249 -651 550 -23 39 -51 80 -62 92
-46 49 -139 5 -126 -60 14 -71 182 -313 305 -439 48 -49 85 -89 83 -89 -19 0
-234 68 -307 97 -216 85 -467 232 -640 373 -90 73 -255 229 -255 240 0 20 567
210 626 210 7 0 20 -24 29 -52 22 -68 50 -98 89 -98 37 0 76 35 76 69 0 14 -7
45 -16 68 -9 24 -14 46 -11 49 9 9 255 52 397 69 148 17 327 31 433 34 l67 1
0 -560z m392 549 c237 -16 646 -73 665 -93 14 -14 -130 -333 -208 -461 -122
-200 -286 -378 -427 -460 -69 -41 -210 -95 -248 -95 -12 0 -14 78 -14 560 l0
560 39 0 c22 0 108 -5 193 -11z m1040 -185 c153 -45 381 -126 408 -144 12 -9
-2 -27 -75 -98 -290 -280 -640 -486 -1006 -591 -58 -17 -109 -31 -112 -31 -3
0 22 26 55 58 174 165 354 453 469 751 l43 112 35 -6 c19 -4 101 -27 183 -51z"/>
<path fill="currentColor" stroke="currentColor" d="M1073 2945 c-16 -7 -33 -20 -37 -30 -10 -27 -7 -694 4 -715 14 -27
62 -41 91 -26 44 22 49 47 49 270 l0 209 175 -234 c109 -145 186 -238 202
-245 34 -15 59 -8 83 24 19 23 20 41 20 362 0 321 -1 339 -20 362 -25 33 -49
39 -89 22 -17 -7 -32 -14 -33 -16 -1 -2 -5 -105 -8 -231 l-5 -228 -167 224
c-92 123 -176 230 -185 239 -28 24 -47 27 -80 13z"/>
<path fill="currentColor" stroke="currentColor" d="M1854 2946 c-17 -8 -34 -21 -38 -31 -10 -27 -7 -694 4 -715 5 -10 24
-23 41 -29 42 -14 485 -15 526 -1 28 10 53 45 53 74 0 7 -9 25 -21 40 l-20 26
-220 0 -219 0 0 84 0 84 186 4 186 3 24 28 c30 35 30 59 0 94 l-24 28 -186 3
-186 4 0 84 0 84 219 0 220 0 20 26 c12 15 21 33 21 40 0 29 -25 64 -53 74
-47 16 -494 13 -533 -4z"/>
<path fill="currentColor" stroke="currentColor" d="M2952 2944 c-34 -14 -31 -5 -104 -267 -22 -81 -43 -145 -46 -143 -2
3 -28 89 -58 192 -29 103 -61 195 -70 205 -38 42 -124 10 -124 -46 0 -25 176
-658 191 -686 12 -23 59 -38 86 -28 35 13 48 43 98 224 26 94 50 176 54 184 5
8 29 -64 61 -175 28 -104 56 -196 61 -205 12 -23 59 -38 86 -28 12 4 28 18 37
31 13 21 196 657 196 683 0 7 -9 24 -21 39 -25 31 -79 36 -106 8 -10 -9 -42
-102 -72 -210 -29 -106 -56 -191 -58 -188 -3 3 -29 89 -58 191 -63 224 -81
250 -153 219z"/>
<path d="M3764 2949 c-192 -23 -298 -161 -229 -299 35 -69 105 -111 265 -160
168 -51 219 -90 172 -133 -29 -26 -73 -38 -143 -38 -94 0 -152 26 -169 75 -25
76 -117 77 -144 2 -18 -51 42 -149 113 -186 125 -63 313 -55 424 18 108 71
116 222 16 306 -45 38 -69 49 -199 91 -134 44 -185 68 -199 94 -23 43 54 83
161 82 85 0 136 -22 159 -68 26 -52 39 -63 75 -63 72 0 96 75 50 155 -55 93
-195 142 -352 124z"/>
</g>
</svg>
